<mxfile host="app.diagrams.net" agent="Mozilla/5.0 (Windows NT 10.0; Win64; x64) AppleWebKit/537.36 (KHTML, like Gecko) Chrome/135.0.0.0 Safari/537.36" version="26.2.12">
  <diagram name="Page-1" id="2YBvvXClWsGukQMizWep">
    <mxGraphModel dx="2123" dy="620" grid="1" gridSize="10" guides="1" tooltips="1" connect="1" arrows="1" fold="1" page="1" pageScale="1" pageWidth="850" pageHeight="1100" math="0" shadow="0">
      <root>
        <mxCell id="0" />
        <mxCell id="1" parent="0" />
        <mxCell id="YN-AbOxAB9IHfIeV8c2e-1" value="QUY TRÌNH QUẢN LÝ TÀI KHOẢN" style="swimlane;childLayout=stackLayout;resizeParent=1;resizeParentMax=0;startSize=20;html=1;" vertex="1" parent="1">
          <mxGeometry x="-179.99999999999955" y="50" width="420" height="650" as="geometry" />
        </mxCell>
        <mxCell id="YN-AbOxAB9IHfIeV8c2e-2" value="Quản trị viên" style="swimlane;startSize=20;html=1;" vertex="1" parent="YN-AbOxAB9IHfIeV8c2e-1">
          <mxGeometry y="20" width="120" height="630" as="geometry" />
        </mxCell>
        <mxCell id="YN-AbOxAB9IHfIeV8c2e-6" value="Bắt đầu" style="rounded=1;whiteSpace=wrap;html=1;" vertex="1" parent="YN-AbOxAB9IHfIeV8c2e-2">
          <mxGeometry x="10" y="30" width="100" height="30" as="geometry" />
        </mxCell>
        <mxCell id="YN-AbOxAB9IHfIeV8c2e-8" value="Tạo tài khoản giáo viên" style="rounded=0;whiteSpace=wrap;html=1;" vertex="1" parent="YN-AbOxAB9IHfIeV8c2e-2">
          <mxGeometry x="10" y="100" width="100" height="40" as="geometry" />
        </mxCell>
        <mxCell id="YN-AbOxAB9IHfIeV8c2e-7" style="edgeStyle=orthogonalEdgeStyle;rounded=0;orthogonalLoop=1;jettySize=auto;html=1;exitX=0.5;exitY=1;exitDx=0;exitDy=0;" edge="1" parent="YN-AbOxAB9IHfIeV8c2e-2" source="YN-AbOxAB9IHfIeV8c2e-6" target="YN-AbOxAB9IHfIeV8c2e-8">
          <mxGeometry relative="1" as="geometry">
            <mxPoint x="59.999999999999545" y="90" as="targetPoint" />
          </mxGeometry>
        </mxCell>
        <mxCell id="YN-AbOxAB9IHfIeV8c2e-10" value="Phân quyền tài khoản" style="rounded=0;whiteSpace=wrap;html=1;" vertex="1" parent="YN-AbOxAB9IHfIeV8c2e-2">
          <mxGeometry x="9.999999999999545" y="170" width="100" height="40" as="geometry" />
        </mxCell>
        <mxCell id="YN-AbOxAB9IHfIeV8c2e-9" style="edgeStyle=orthogonalEdgeStyle;rounded=0;orthogonalLoop=1;jettySize=auto;html=1;exitX=0.5;exitY=1;exitDx=0;exitDy=0;" edge="1" parent="YN-AbOxAB9IHfIeV8c2e-2" source="YN-AbOxAB9IHfIeV8c2e-8" target="YN-AbOxAB9IHfIeV8c2e-10">
          <mxGeometry relative="1" as="geometry">
            <mxPoint x="59.999999999999545" y="170" as="targetPoint" />
          </mxGeometry>
        </mxCell>
        <mxCell id="YN-AbOxAB9IHfIeV8c2e-3" value="Giáo viên" style="swimlane;startSize=20;html=1;" vertex="1" parent="YN-AbOxAB9IHfIeV8c2e-1">
          <mxGeometry x="120" y="20" width="140" height="630" as="geometry" />
        </mxCell>
        <mxCell id="YN-AbOxAB9IHfIeV8c2e-15" style="edgeStyle=orthogonalEdgeStyle;rounded=0;orthogonalLoop=1;jettySize=auto;html=1;exitX=0.5;exitY=1;exitDx=0;exitDy=0;entryX=0.5;entryY=0;entryDx=0;entryDy=0;" edge="1" parent="YN-AbOxAB9IHfIeV8c2e-3" source="YN-AbOxAB9IHfIeV8c2e-11" target="YN-AbOxAB9IHfIeV8c2e-13">
          <mxGeometry relative="1" as="geometry" />
        </mxCell>
        <mxCell id="YN-AbOxAB9IHfIeV8c2e-24" style="edgeStyle=orthogonalEdgeStyle;rounded=0;orthogonalLoop=1;jettySize=auto;html=1;exitX=1;exitY=0.5;exitDx=0;exitDy=0;" edge="1" parent="YN-AbOxAB9IHfIeV8c2e-3" source="YN-AbOxAB9IHfIeV8c2e-11">
          <mxGeometry relative="1" as="geometry">
            <mxPoint x="159.99999999999955" y="120" as="targetPoint" />
          </mxGeometry>
        </mxCell>
        <mxCell id="YN-AbOxAB9IHfIeV8c2e-11" value="Nhận thông tin tài khoản" style="rounded=0;whiteSpace=wrap;html=1;" vertex="1" parent="YN-AbOxAB9IHfIeV8c2e-3">
          <mxGeometry x="17.5" y="100" width="100" height="40" as="geometry" />
        </mxCell>
        <mxCell id="YN-AbOxAB9IHfIeV8c2e-16" style="edgeStyle=orthogonalEdgeStyle;rounded=0;orthogonalLoop=1;jettySize=auto;html=1;exitX=0.5;exitY=1;exitDx=0;exitDy=0;" edge="1" parent="YN-AbOxAB9IHfIeV8c2e-3" source="YN-AbOxAB9IHfIeV8c2e-13">
          <mxGeometry relative="1" as="geometry">
            <mxPoint x="67.99999999999955" y="280" as="targetPoint" />
          </mxGeometry>
        </mxCell>
        <mxCell id="YN-AbOxAB9IHfIeV8c2e-13" value="Đăng nhập vào&lt;br&gt;GG Classroom" style="rhombus;whiteSpace=wrap;html=1;" vertex="1" parent="YN-AbOxAB9IHfIeV8c2e-3">
          <mxGeometry x="10" y="170" width="115" height="80" as="geometry" />
        </mxCell>
        <mxCell id="YN-AbOxAB9IHfIeV8c2e-17" value="Hổ trợ xử lý sự cố" style="rounded=0;whiteSpace=wrap;html=1;" vertex="1" parent="YN-AbOxAB9IHfIeV8c2e-3">
          <mxGeometry x="10" y="280" width="120" height="40" as="geometry" />
        </mxCell>
        <mxCell id="YN-AbOxAB9IHfIeV8c2e-19" value="Sử dụng tài khoản giảng dạy" style="rounded=0;whiteSpace=wrap;html=1;" vertex="1" parent="YN-AbOxAB9IHfIeV8c2e-3">
          <mxGeometry x="10" y="350" width="120" height="40" as="geometry" />
        </mxCell>
        <mxCell id="YN-AbOxAB9IHfIeV8c2e-18" style="edgeStyle=orthogonalEdgeStyle;rounded=0;orthogonalLoop=1;jettySize=auto;html=1;exitX=0.5;exitY=1;exitDx=0;exitDy=0;" edge="1" parent="YN-AbOxAB9IHfIeV8c2e-3" source="YN-AbOxAB9IHfIeV8c2e-17" target="YN-AbOxAB9IHfIeV8c2e-19">
          <mxGeometry relative="1" as="geometry">
            <mxPoint x="69.99999999999955" y="360" as="targetPoint" />
          </mxGeometry>
        </mxCell>
        <mxCell id="YN-AbOxAB9IHfIeV8c2e-20" style="edgeStyle=orthogonalEdgeStyle;rounded=0;orthogonalLoop=1;jettySize=auto;html=1;exitX=0.5;exitY=1;exitDx=0;exitDy=0;" edge="1" parent="YN-AbOxAB9IHfIeV8c2e-3" source="YN-AbOxAB9IHfIeV8c2e-19">
          <mxGeometry relative="1" as="geometry">
            <mxPoint x="69.99999999999955" y="420" as="targetPoint" />
          </mxGeometry>
        </mxCell>
        <mxCell id="YN-AbOxAB9IHfIeV8c2e-28" value="Có" style="text;html=1;align=center;verticalAlign=middle;whiteSpace=wrap;rounded=0;" vertex="1" parent="YN-AbOxAB9IHfIeV8c2e-3">
          <mxGeometry x="99.99999999999955" y="90" width="60" height="30" as="geometry" />
        </mxCell>
        <mxCell id="YN-AbOxAB9IHfIeV8c2e-29" value="Không" style="text;html=1;align=center;verticalAlign=middle;whiteSpace=wrap;rounded=0;" vertex="1" parent="YN-AbOxAB9IHfIeV8c2e-3">
          <mxGeometry x="59.999999999999545" y="140" width="60" height="30" as="geometry" />
        </mxCell>
        <mxCell id="YN-AbOxAB9IHfIeV8c2e-44" style="edgeStyle=orthogonalEdgeStyle;rounded=0;orthogonalLoop=1;jettySize=auto;html=1;exitX=0.5;exitY=1;exitDx=0;exitDy=0;" edge="1" parent="YN-AbOxAB9IHfIeV8c2e-3" source="YN-AbOxAB9IHfIeV8c2e-37">
          <mxGeometry relative="1" as="geometry">
            <mxPoint x="69.99999999999955" y="490" as="targetPoint" />
          </mxGeometry>
        </mxCell>
        <mxCell id="YN-AbOxAB9IHfIeV8c2e-37" value="Tạo lớp ,quản lý học viên ,đăng tài liệu" style="rounded=0;whiteSpace=wrap;html=1;" vertex="1" parent="YN-AbOxAB9IHfIeV8c2e-3">
          <mxGeometry x="10" y="420" width="120" height="40" as="geometry" />
        </mxCell>
        <mxCell id="YN-AbOxAB9IHfIeV8c2e-36" value="Kết thúc" style="rounded=1;whiteSpace=wrap;html=1;" vertex="1" parent="YN-AbOxAB9IHfIeV8c2e-3">
          <mxGeometry x="17.499999999999545" y="490" width="100" height="30" as="geometry" />
        </mxCell>
        <mxCell id="YN-AbOxAB9IHfIeV8c2e-5" value="Hệ thống" style="swimlane;startSize=20;html=1;" vertex="1" parent="YN-AbOxAB9IHfIeV8c2e-1">
          <mxGeometry x="260" y="20" width="160" height="630" as="geometry" />
        </mxCell>
        <mxCell id="YN-AbOxAB9IHfIeV8c2e-26" value="Xác thực thông tin đăng nhập" style="rounded=0;whiteSpace=wrap;html=1;" vertex="1" parent="YN-AbOxAB9IHfIeV8c2e-5">
          <mxGeometry x="20" y="100" width="100" height="40" as="geometry" />
        </mxCell>
        <mxCell id="YN-AbOxAB9IHfIeV8c2e-35" value="" style="endArrow=none;html=1;rounded=0;entryX=0.5;entryY=1;entryDx=0;entryDy=0;" edge="1" parent="YN-AbOxAB9IHfIeV8c2e-1" source="YN-AbOxAB9IHfIeV8c2e-19" target="YN-AbOxAB9IHfIeV8c2e-26">
          <mxGeometry width="50" height="50" relative="1" as="geometry">
            <mxPoint x="179.99999999999955" y="430" as="sourcePoint" />
            <mxPoint x="229.99999999999955" y="380" as="targetPoint" />
            <Array as="points">
              <mxPoint x="329.99999999999955" y="390" />
            </Array>
          </mxGeometry>
        </mxCell>
        <mxCell id="YN-AbOxAB9IHfIeV8c2e-45" value="Pool" style="swimlane;childLayout=stackLayout;resizeParent=1;resizeParentMax=0;startSize=20;html=1;" vertex="1" parent="1">
          <mxGeometry x="720" y="50" width="360" height="650" as="geometry" />
        </mxCell>
        <mxCell id="YN-AbOxAB9IHfIeV8c2e-46" value="Lane 1" style="swimlane;startSize=20;html=1;" vertex="1" parent="YN-AbOxAB9IHfIeV8c2e-45">
          <mxGeometry y="20" width="120" height="630" as="geometry" />
        </mxCell>
        <mxCell id="YN-AbOxAB9IHfIeV8c2e-47" value="Lane 2" style="swimlane;startSize=20;html=1;" vertex="1" parent="YN-AbOxAB9IHfIeV8c2e-45">
          <mxGeometry x="120" y="20" width="120" height="630" as="geometry" />
        </mxCell>
        <mxCell id="YN-AbOxAB9IHfIeV8c2e-48" value="Lane 3" style="swimlane;startSize=20;html=1;" vertex="1" parent="YN-AbOxAB9IHfIeV8c2e-45">
          <mxGeometry x="240" y="20" width="120" height="630" as="geometry" />
        </mxCell>
      </root>
    </mxGraphModel>
  </diagram>
</mxfile>
